M48
METRIC
T1C0.700
T2C0.800
T3C1.000
T4C1.100
T5C1.200
T6C1.300
T7C1.500
T8C3.500
T9C3.500
%
G90
G05
T1
X96.1Y-48.0
X127.75Y-28.0
T2
X63.11Y-48.92
X63.11Y-51.46
X63.11Y-54.0
X63.11Y-56.54
X65.46Y-45.54
X65.96Y-61.54
X68.46Y-61.54
X70.46Y-45.54
X70.73Y-48.92
X70.73Y-51.46
X70.73Y-54.0
X70.73Y-56.54
X81.46Y-47.38
X81.46Y-57.54
X81.46Y-61.46
X81.46Y-71.62
X85.46Y-47.46
X85.46Y-57.62
X85.46Y-61.46
X85.46Y-71.62
X100.75Y-93.75
X105.75Y-93.75
X108.75Y-93.75
X108.945Y-48.96
X108.945Y-51.5
X108.945Y-54.04
X108.945Y-56.58
X111.382Y-45.25
X111.587Y-61.75
X113.75Y-93.75
X114.087Y-61.75
X116.382Y-45.25
X116.565Y-48.96
X116.565Y-51.5
X116.565Y-54.04
X116.565Y-56.58
X127.0Y-47.42
X127.0Y-57.58
X127.382Y-61.75
X127.382Y-71.91
X131.0Y-47.34
X131.0Y-57.5
X131.382Y-61.67
X131.382Y-71.83
X153.307Y-48.88
X153.307Y-51.42
X153.307Y-53.96
X153.307Y-56.5
X155.632Y-45.19
X156.132Y-61.69
X158.632Y-61.69
X158.75Y-123.0
X160.632Y-45.19
X160.75Y-123.0
X160.927Y-48.88
X160.927Y-51.42
X160.927Y-53.96
X160.927Y-56.5
X162.75Y-123.0
X164.75Y-123.0
X171.132Y-47.42
X171.132Y-57.58
X171.382Y-62.09
X171.382Y-72.25
X175.132Y-47.5
X175.132Y-57.66
X175.382Y-62.09
X175.382Y-72.25
T3
X90.92Y-57.77
X91.38Y-63.54
X93.46Y-57.77
X93.92Y-63.54
X96.0Y-57.77
X96.46Y-63.54
X100.52Y-98.96
X100.52Y-101.5
X100.52Y-104.04
X119.75Y-120.0
X119.75Y-125.0
X124.75Y-120.0
X124.75Y-125.0
X133.75Y-120.0
X133.75Y-125.0
X136.342Y-63.09
X136.46Y-57.73
X136.54Y-30.95
X138.75Y-120.0
X138.75Y-125.0
X138.882Y-63.09
X139.0Y-57.73
X141.422Y-63.09
X141.54Y-30.95
X141.54Y-57.73
X147.25Y-120.0
X147.25Y-125.0
X152.25Y-120.0
X152.25Y-125.0
X181.052Y-57.5
X181.342Y-63.52
X183.592Y-57.5
X183.882Y-63.52
X186.132Y-57.5
X186.422Y-63.52
T4
X74.73Y-47.38
X74.73Y-57.54
X100.59Y-113.0
X102.0Y-77.34
X102.0Y-87.5
X110.75Y-113.0
X114.22Y-87.75
X114.22Y-113.15
X116.76Y-87.75
X116.76Y-113.15
X119.3Y-87.75
X119.3Y-113.15
X121.27Y-47.92
X121.27Y-58.08
X121.84Y-87.75
X121.84Y-113.15
X124.38Y-87.75
X124.38Y-113.15
X126.92Y-87.75
X126.92Y-113.15
X129.46Y-87.75
X129.46Y-113.15
X132.0Y-87.75
X132.0Y-113.15
X134.54Y-87.75
X134.54Y-113.15
X137.08Y-87.75
X137.08Y-113.15
X139.62Y-87.75
X139.62Y-113.15
X142.16Y-87.75
X142.16Y-113.15
X144.7Y-87.75
X144.7Y-113.15
X147.24Y-87.75
X147.24Y-113.15
X149.78Y-87.75
X149.78Y-113.15
X152.32Y-87.75
X152.32Y-113.15
X154.86Y-87.75
X154.86Y-113.15
X157.4Y-87.75
X157.4Y-113.15
X159.94Y-87.75
X159.94Y-113.15
X165.882Y-47.34
X165.882Y-57.5
T5
X102.46Y-52.04
X102.46Y-67.04
X147.382Y-51.75
X147.382Y-66.75
X192.382Y-52.25
X192.382Y-67.25
T6
X178.5Y-125.0
X181.0Y-120.0
X183.5Y-125.0
T7
X109.92Y-19.0
X115.0Y-19.0
X136.46Y-18.95
X141.54Y-18.95
X157.71Y-18.7
X162.79Y-18.7
T8
X62.0Y-16.0
X62.0Y-131.0
X102.0Y-131.0
X197.0Y-16.0
X197.0Y-131.0
T9
X93.46Y-41.11
X93.92Y-80.2
X117.18Y-101.5
X138.882Y-79.75
X139.0Y-41.07
X183.592Y-40.84
X183.882Y-80.18
T0
M30
